<?xml version="1.0" encoding="utf-8"?>
<!-- Generator: Adobe Illustrator 28.2.0, SVG Export Plug-In . SVG Version: 6.00 Build 0)  -->
<svg version="1.1" id="Layer_1" xmlns="http://www.w3.org/2000/svg" xmlns:xlink="http://www.w3.org/1999/xlink" x="0px" y="0px"
	 viewBox="0 0 1073.3 363.7" style="enable-background:new 0 0 1073.3 363.7;" xml:space="preserve">
<style type="text/css">
	.st0{fill:#FFFFFF;}
	.st1{fill-rule:evenodd;clip-rule:evenodd;fill:#FFFFFF;}
</style>
<metadata><?xpacket begin="﻿" id="W5M0MpCehiHzreSzNTczkc9d"?>
<x:xmpmeta xmlns:x="adobe:ns:meta/" x:xmptk="Adobe XMP Core 9.1-c002 79.e06fd49, 2023/10/04-19:08:29        ">
   <rdf:RDF xmlns:rdf="http://www.w3.org/1999/02/22-rdf-syntax-ns#">
      <rdf:Description rdf:about=""
            xmlns:xmp="http://ns.adobe.com/xap/1.0/"
            xmlns:xmpGImg="http://ns.adobe.com/xap/1.0/g/img/"
            xmlns:xmpTPg="http://ns.adobe.com/xap/1.0/t/pg/"
            xmlns:stDim="http://ns.adobe.com/xap/1.0/sType/Dimensions#"
            xmlns:xmpG="http://ns.adobe.com/xap/1.0/g/"
            xmlns:illustrator="http://ns.adobe.com/illustrator/1.0/"
            xmlns:dc="http://purl.org/dc/elements/1.1/"
            xmlns:xmpMM="http://ns.adobe.com/xap/1.0/mm/"
            xmlns:stRef="http://ns.adobe.com/xap/1.0/sType/ResourceRef#"
            xmlns:stEvt="http://ns.adobe.com/xap/1.0/sType/ResourceEvent#"
            xmlns:pdf="http://ns.adobe.com/pdf/1.3/">
         <xmp:CreatorTool>Adobe Illustrator 28.2 (Macintosh)</xmp:CreatorTool>
         <xmp:CreateDate>2024-02-14T09:19:21Z</xmp:CreateDate>
         <xmp:ModifyDate>2024-02-14T09:19:21Z</xmp:ModifyDate>
         <xmp:MetadataDate>2024-02-14T09:19:21Z</xmp:MetadataDate>
         <xmp:Thumbnails>
            <rdf:Alt>
               <rdf:li rdf:parseType="Resource">
                  <xmpGImg:width>256</xmpGImg:width>
                  <xmpGImg:height>80</xmpGImg:height>
                  <xmpGImg:format>JPEG</xmpGImg:format>
                  <xmpGImg:image>/9j/4AAQSkZJRgABAgEASABIAAD/7QAsUGhvdG9zaG9wIDMuMAA4QklNA+0AAAAAABAASAAAAAEA&#xA;AQBIAAAAAQAB/+4ADkFkb2JlAGTAAAAAAf/bAIQABgQEBAUEBgUFBgkGBQYJCwgGBggLDAoKCwoK&#xA;DBAMDAwMDAwQDA4PEA8ODBMTFBQTExwbGxscHx8fHx8fHx8fHwEHBwcNDA0YEBAYGhURFRofHx8f&#xA;Hx8fHx8fHx8fHx8fHx8fHx8fHx8fHx8fHx8fHx8fHx8fHx8fHx8fHx8fHx8f/8AAEQgAUAEAAwER&#xA;AAIRAQMRAf/EAaIAAAAHAQEBAQEAAAAAAAAAAAQFAwIGAQAHCAkKCwEAAgIDAQEBAQEAAAAAAAAA&#xA;AQACAwQFBgcICQoLEAACAQMDAgQCBgcDBAIGAnMBAgMRBAAFIRIxQVEGE2EicYEUMpGhBxWxQiPB&#xA;UtHhMxZi8CRygvElQzRTkqKyY3PCNUQnk6OzNhdUZHTD0uIIJoMJChgZhJRFRqS0VtNVKBry4/PE&#xA;1OT0ZXWFlaW1xdXl9WZ2hpamtsbW5vY3R1dnd4eXp7fH1+f3OEhYaHiImKi4yNjo+Ck5SVlpeYmZ&#xA;qbnJ2en5KjpKWmp6ipqqusra6voRAAICAQIDBQUEBQYECAMDbQEAAhEDBCESMUEFURNhIgZxgZEy&#xA;obHwFMHR4SNCFVJicvEzJDRDghaSUyWiY7LCB3PSNeJEgxdUkwgJChgZJjZFGidkdFU38qOzwygp&#xA;0+PzhJSktMTU5PRldYWVpbXF1eX1RlZmdoaWprbG1ub2R1dnd4eXp7fH1+f3OEhYaHiImKi4yNjo&#xA;+DlJWWl5iZmpucnZ6fkqOkpaanqKmqq6ytrq+v/aAAwDAQACEQMRAD8A9U4q7FXYq7FXYq7FXYq7&#xA;FXYq7FXYq7FXYq7FXYq7FXYq7FXYq7FXYq7FXYq7FXYq7FXYq7FXYq7FXYq7FXYq7FXYq7FXYq7F&#xA;XYq7FXYq7FXYq7FXYq7FXYq7FXYq7FXYq7FXYq7FXYq7FXYq7FXYq7FXYq7FXYq7FXYq7FXYq7FX&#xA;Yq7FXYq7FXYq7FXYq7FXYq7FXYq7FXYq7FXYq7FXYq7FXYq7FXYq7FXYq7FXYq7FXYq7FXYq7FXY&#xA;q7FXYq7FXYq7FXYq7FXYq7FXYq7FXYq7FXYq7FXYq7FXYq7FXYq7FXYq7FXYq7FXYq7FXYq7FXYq&#xA;7FXYq7FXYq7FXYq7FXYq7FXYq7FXYq7FXYq7FXYq7FXYq7FXYq7FXYq7FXYq7FXYq7FXYq7FXYq7&#xA;FXYq7FXYq7FXYq7FXYq7FXYq7FXYq7FXYq7FXYq7FXYq7FXYq7FXYq7FXYq7FXYq7FXYq7FXYq7F&#xA;XYq7FXYq7FXYq7FXYq7FXYq7FXYq7FXYq7FXYq7FXYq7FXYq7FXYq7FXYq7FXYq7FXYq7FXYq7FX&#xA;Yq7FXYq7FXYq7FXYq7FXYq7FXYq7FXYq7FXYq7FXYq7FXYq7FXYq7FXYq7FXYq7FXYq7FXYq7FXY&#xA;q7FXYq7FXYq7FXYq7FXYq7FXYq7FXYq7FXYq7FXYq7FXYq7FXYq7FXYq7FXYq7FXYq7FXYq7FXYq&#xA;7FXYq7FXYq7FXYq7FXYq7FXYq7FXYq7FXYq7FXYq7FXYq7FXYq7FXYq7FXYq7FXYq7FXYq7FXYq7&#xA;FXYq7FXYq7FXYq7FXYq7FX//2Q==</xmpGImg:image>
               </rdf:li>
            </rdf:Alt>
         </xmp:Thumbnails>
         <xmpTPg:NPages>1</xmpTPg:NPages>
         <xmpTPg:HasVisibleTransparency>False</xmpTPg:HasVisibleTransparency>
         <xmpTPg:HasVisibleOverprint>False</xmpTPg:HasVisibleOverprint>
         <xmpTPg:MaxPageSize rdf:parseType="Resource">
            <stDim:w>378.625236</stDim:w>
            <stDim:h>128.292443</stDim:h>
            <stDim:unit>Millimeters</stDim:unit>
         </xmpTPg:MaxPageSize>
         <xmpTPg:SwatchGroups>
            <rdf:Seq>
               <rdf:li rdf:parseType="Resource">
                  <xmpG:groupName>Default Swatch Group</xmpG:groupName>
                  <xmpG:groupType>0</xmpG:groupType>
                  <xmpG:Colorants>
                     <rdf:Seq>
                        <rdf:li rdf:parseType="Resource">
                           <xmpG:swatchName>R=249 G=19 B=80</xmpG:swatchName>
                           <xmpG:type>PROCESS</xmpG:type>
                           <xmpG:tint>100.000000</xmpG:tint>
                           <xmpG:mode>RGB</xmpG:mode>
                           <xmpG:red>249</xmpG:red>
                           <xmpG:green>19</xmpG:green>
                           <xmpG:blue>80</xmpG:blue>
                        </rdf:li>
                        <rdf:li rdf:parseType="Resource">
                           <xmpG:swatchName>R=0 G=72 B=87</xmpG:swatchName>
                           <xmpG:type>PROCESS</xmpG:type>
                           <xmpG:tint>100.000000</xmpG:tint>
                           <xmpG:mode>RGB</xmpG:mode>
                           <xmpG:red>0</xmpG:red>
                           <xmpG:green>72</xmpG:green>
                           <xmpG:blue>87</xmpG:blue>
                        </rdf:li>
                     </rdf:Seq>
                  </xmpG:Colorants>
               </rdf:li>
            </rdf:Seq>
         </xmpTPg:SwatchGroups>
         <illustrator:CreatorSubTool>Adobe Illustrator</illustrator:CreatorSubTool>
         <dc:format>image/svg+xml</dc:format>
         <dc:title>
            <rdf:Alt>
               <rdf:li xml:lang="x-default">Reply-Logos</rdf:li>
            </rdf:Alt>
         </dc:title>
         <xmpMM:RenditionClass>default</xmpMM:RenditionClass>
         <xmpMM:DocumentID>xmp.did:6471a06a-4f13-4557-b32c-43328b9af15d</xmpMM:DocumentID>
         <xmpMM:InstanceID>xmp.iid:6471a06a-4f13-4557-b32c-43328b9af15d</xmpMM:InstanceID>
         <xmpMM:OriginalDocumentID>uuid:bf1faf8d-b34f-3a41-b690-640f54940fd7</xmpMM:OriginalDocumentID>
         <xmpMM:DerivedFrom rdf:parseType="Resource">
            <stRef:instanceID>xmp.iid:63473dee-7f8b-4716-a1d2-93b4aabc4f5d</stRef:instanceID>
            <stRef:documentID>xmp.did:6a2e1ea2-da69-404e-81f7-cb4734388eb3</stRef:documentID>
            <stRef:originalDocumentID>uuid:bf1faf8d-b34f-3a41-b690-640f54940fd7</stRef:originalDocumentID>
            <stRef:renditionClass>default</stRef:renditionClass>
         </xmpMM:DerivedFrom>
         <xmpMM:History>
            <rdf:Seq>
               <rdf:li rdf:parseType="Resource">
                  <stEvt:action>saved</stEvt:action>
                  <stEvt:instanceID>xmp.iid:27b7c32a-773c-4789-8671-8c70d65b75a7</stEvt:instanceID>
                  <stEvt:when>2024-02-14T09:15:06Z</stEvt:when>
                  <stEvt:softwareAgent>Adobe Illustrator 28.2 (Macintosh)</stEvt:softwareAgent>
                  <stEvt:changed>/</stEvt:changed>
               </rdf:li>
               <rdf:li rdf:parseType="Resource">
                  <stEvt:action>saved</stEvt:action>
                  <stEvt:instanceID>xmp.iid:6471a06a-4f13-4557-b32c-43328b9af15d</stEvt:instanceID>
                  <stEvt:when>2024-02-14T09:19:21Z</stEvt:when>
                  <stEvt:softwareAgent>Adobe Illustrator 28.2 (Macintosh)</stEvt:softwareAgent>
                  <stEvt:changed>/</stEvt:changed>
               </rdf:li>
            </rdf:Seq>
         </xmpMM:History>
         <pdf:Producer>Adobe PDF library 17.00</pdf:Producer>
      </rdf:Description>
   </rdf:RDF>
</x:xmpmeta>
                                                                                                    
                                                                                                    
                                                                                                    
                                                                                                    
                                                                                                    
                                                                                                    
                                                                                                    
                                                                                                    
                                                                                                    
                                                                                                    
                                                                                                    
                                                                                                    
                                                                                                    
                                                                                                    
                                                                                                    
                                                                                                    
                                                                                                    
                                                                                                    
                                                                                                    
                                                                                                    
                           
<?xpacket end="w"?>
	</metadata>
<g>
	<path class="st0" d="M348.7,306.2c0-21,15.7-35.3,35.3-35.3c14.3,0,22.8,7.2,27.9,15.4l-10.2,5.2c-3.3-5.6-9.8-9.9-17.7-9.9
		c-13,0-23,10.3-23,24.7c0,14.3,10,24.7,23,24.7c7.9,0,14.4-4.2,17.7-9.9l10.2,5.2c-5.2,8.2-13.6,15.4-27.9,15.4
		C364.4,341.6,348.7,327.2,348.7,306.2z"/>
	<path class="st0" d="M453.4,270.9c20.5,0,34.9,14.9,34.9,35.3c0,20.4-14.4,35.3-34.9,35.3s-34.9-14.9-34.9-35.3
		C418.5,285.9,432.9,270.9,453.4,270.9z M453.4,281.6c-13.8,0-22.6,10.5-22.6,24.7c0,14,8.8,24.7,22.6,24.7
		c13.7,0,22.6-10.6,22.6-24.7C476,292.1,467.1,281.6,453.4,281.6z"/>
	<path class="st0" d="M558.8,340.3v-51.7l-21,51.7h-5.1l-20.9-51.7v51.7h-12v-68.3h16.9l18.5,46l18.6-46h16.9v68.3H558.8z"/>
	<path class="st0" d="M637.5,340.3L624.2,290L611,340.3h-12.8l-19.5-68.3h13.4l13.3,52.6l14.1-52.6h9.5l14.1,52.6l13.2-52.6h13.4
		l-19.4,68.3H637.5z"/>
	<path class="st0" d="M716.7,340.3l-15.1-25.5h-11.9v25.5h-12v-68.3h30c13.5,0,22.3,8.8,22.3,21.4c0,12.2-8,18.7-16.2,20.1
		l16.7,26.8H716.7z M706.1,282.6h-16.4v21.7h16.4c6.8,0,11.7-4.3,11.7-10.8S712.8,282.6,706.1,282.6z"/>
	<path class="st0" d="M790.3,340.3l-5-13.1H753l-5,13.1h-13.1l26.8-68.3h14.9l26.8,68.3H790.3z M769.1,282.2l-12.8,34.5h25.6
		L769.1,282.2z"/>
	<path class="st0" d="M810.9,340.3v-68.3h30c14.3,0,22.3,9.8,22.3,21.4s-8.1,21.4-22.3,21.4h-18v25.5H810.9z M839.2,282.6h-16.4
		v21.7h16.4c6.8,0,11.7-4.3,11.7-10.8S846,282.6,839.2,282.6z"/>
</g>
<g id="Ebene_x0020_1">
	<path class="st1" d="M268.1,21c-15.2,0-27.5,12.3-27.5,27.5c0,15.2,12.3,27.5,27.5,27.5c15.1,0,27.5-12.3,27.5-27.5
		C295.6,33.4,283.3,21,268.1,21z"/>
	<path class="st1" d="M207.8,136.8l34.4-45.3c1.8-2.3,1.9-5.5,0.4-7.9l-14.6-23.4c-1.3-2-3.6-3.3-6-3.3l-63,0.4h-34.6
		c-2.7,0-3.9,3.4-1.8,5.1l9.7,7.8c1.3,1.1,3,1.8,4.7,2.1l60,11.3l-74.2,79.7l-97.6,13.9c-3.4,0.5-4.8,4.6-2.5,7l9.5,10.3
		c1.9,2,4.5,3.1,7.3,3.1l94.3-1.5c3.5-0.1,6.9-1.1,9.9-2.9l22.6-13.8l47.7,37.9c1.9,1.5,3.1,3.6,3.5,6l9.1,66.8
		c0.4,3.1,3.1,5.5,6.3,5.5h4.9c3.5,0,6.3-2.8,6.3-6.3l0.3-74.1c0-3.8-1.2-7.6-3.5-10.6l-41.6-56.1L207.8,136.8z"/>
	<path class="st1" d="M448.6,119c0-13.7-10.7-22.1-24.6-22.1h-37.2v44.7H424C438,141.5,448.6,133.1,448.6,119z M445.1,231.4
		l-32.5-58.8h-25.8v58.8h-35.3V65.8H429c34.5,0,55.8,22.6,55.8,53.4c0,29-18.6,44.9-36.5,49.1l37.4,63.1H445.1z"/>
	<polygon class="st1" points="511.2,231.4 511.2,65.8 628.2,65.8 628.2,96.9 546.4,96.9 546.4,131.6 626.5,131.6 626.5,162.6 
		546.4,162.6 546.4,200.3 628.2,200.3 628.2,231.4 	"/>
	<path class="st1" d="M752.8,119.2c0-13.9-10.6-22.3-24.6-22.3H691v44.4h37.2C742.2,141.3,752.8,132.8,752.8,119.2z M655.8,231.4
		V65.8h77.4c36,0,55.6,24.3,55.6,53.4c0,28.8-19.9,53.1-55.6,53.1H691v59.1H655.8z"/>
	<polygon class="st1" points="809.4,231.4 809.4,65.8 844.9,65.8 844.9,200.3 914.8,200.3 914.8,231.4 	"/>
	<polygon class="st1" points="953.3,231.4 953.3,163.6 889.8,65.8 930,65.8 970.9,132.1 1011.8,65.8 1051.8,65.8 988.5,163.6 
		988.5,231.4 	"/>
</g>
</svg>
