<?xml version="1.0" encoding="UTF-8"?>
<svg id="Layer_1" data-name="Layer 1" xmlns="http://www.w3.org/2000/svg" version="1.1" viewBox="0 0 12 12">
  <defs>
    <style>
      .cls-1 {
        fill: #000;
        stroke-width: 0px;
      }
    </style>
  </defs>
  <path class="cls-1" d="M6,1.5C3.5,1.5,1.5,3.5,1.5,6s2,4.5,4.5,4.5.8.3.8.8-.3.8-.8.8c-3.3,0-6-2.7-6-6S2.7,0,6,0s6,2.7,6,6v.8c0,1.2-1,2.2-2.2,2.2s-1.3-.3-1.7-.8c-.5.5-1.2.8-2,.8-1.7,0-3-1.3-3-3s1.3-3,3-3,1.3.2,1.8.6c.1-.1.3-.2.5-.2.4,0,.8.3.8.8v2.6c0,.4.3.8.8.8s.8-.3.8-.8v-.8c0-2.5-2-4.5-4.5-4.5ZM7.5,6c0-.8-.7-1.5-1.5-1.5s-1.5.7-1.5,1.5.7,1.5,1.5,1.5,1.5-.7,1.5-1.5Z"/>
</svg>