<?xml version="1.0" encoding="UTF-8"?>
<svg version="1.1" xmlns="http://www.w3.org/2000/svg" width="32" height="32">
<path d="M0 0 C2 0.75 2 0.75 4 3.75 C3.625 6.25 3.625 6.25 3 8.75 C2.67903167 11.95079095 2.67903167 11.95079095 5.25 14.4375 C7.91139629 17.17906662 7.91139629 17.17906662 12 16.75 C12.99 16.42 13.98 16.09 15 15.75 C17.6875 16.875 17.6875 16.875 20 18.75 C20.5 21.3125 20.5 21.3125 20 23.75 C16.19355712 26.28762859 14.52642303 26.26942559 10 25.75 C4.2291618 23.2545024 -0.72679872 19.13045832 -4 13.75 C-5.46527626 9.91823775 -6.66281741 6.48375849 -5.15625 2.54296875 C-3.64235364 0.19540649 -2.79333657 -0.34916707 0 0 Z " fill="#000000" transform="translate(8,2.25)"/>
</svg>
