<?xml version="1.0" encoding="utf-8"?>
<!-- Generator: Adobe Illustrator 28.2.0, SVG Export Plug-In . SVG Version: 6.00 Build 0)  -->
<svg version="1.1" id="Layer_1" xmlns="http://www.w3.org/2000/svg" xmlns:xlink="http://www.w3.org/1999/xlink" x="0px" y="0px"
	 viewBox="0 0 321 322.7" style="enable-background:new 0 0 321 322.7;" xml:space="preserve">
<style type="text/css">
	.st0{fill-rule:evenodd;clip-rule:evenodd;}
</style>
<g id="Ebene_x0020_1_00000109730952994491937000000014936164522522493338_">
	<path class="st0" d="M268.1,21c-15.2,0-27.5,12.3-27.5,27.5S252.9,76,268.1,76c15.1,0,27.5-12.3,27.5-27.5
		C295.6,33.4,283.3,21,268.1,21z"/>
	<path class="st0" d="M207.8,136.8l34.4-45.3c1.8-2.3,1.9-5.5,0.4-7.9L228,60.2c-1.3-2-3.6-3.3-6-3.3l-63,0.4h-34.6
		c-2.7,0-3.9,3.4-1.8,5.1l9.7,7.8c1.3,1.1,3,1.8,4.7,2.1l60,11.3l-74.2,79.7l-97.6,13.9c-3.4,0.5-4.8,4.6-2.5,7l9.5,10.3
		c1.9,2,4.5,3.1,7.3,3.1l94.3-1.5c3.5-0.1,6.9-1.1,9.9-2.9l22.6-13.8l47.7,37.9c1.9,1.5,3.1,3.6,3.5,6l9.1,66.8
		c0.4,3.1,3.1,5.5,6.3,5.5h4.9c3.5,0,6.3-2.8,6.3-6.3l0.3-74.1c0-3.8-1.2-7.6-3.5-10.6l-41.6-56.1L207.8,136.8z"/>
</g>
</svg>
